<?xml version="1.0" standalone="no"?>
<!DOCTYPE svg PUBLIC "-//W3C//DTD SVG 20010904//EN"
 "http://www.w3.org/TR/2001/REC-SVG-20010904/DTD/svg10.dtd">
<svg version="1.0" xmlns="http://www.w3.org/2000/svg"
 width="48.000000pt" height="48.000000pt" viewBox="0 0 48.000000 48.000000"
 preserveAspectRatio="xMidYMid meet">

<g transform="translate(0.000000,48.000000) scale(0.100000,-0.100000)"
fill="#000000" stroke="none">
<path d="M0 240 l0 -240 240 0 240 0 0 240 0 240 -240 0 -240 0 0 -240z m254
154 c3 -8 -3 -67 -15 -131 -22 -127 -20 -159 14 -173 20 -8 20 -9 -7 -9 -69
-2 -80 47 -46 207 11 50 17 99 14 107 -4 10 0 15 14 15 11 0 23 -7 26 -16z"/>
</g>
</svg>
